<svg width="80" height="80" viewBox="0 0 80 80" fill="none" xmlns="http://www.w3.org/2000/svg">
<path d="M30 16.6666H63.3333C65.1014 16.6666 66.7971 17.369 68.0474 18.6192C69.2976 19.8695 70 21.5652 70 23.3333V56.6666M63.3333 63.3333H16.6667C14.8986 63.3333 13.2029 62.6309 11.9526 61.3807C10.7024 60.1304 10 58.4347 10 56.6666V23.3333C10 21.5652 10.7024 19.8695 11.9526 18.6192C13.2029 17.369 14.8986 16.6666 16.6667 16.6666" stroke="#9A0BD7" stroke-width="2" stroke-linecap="round" stroke-linejoin="round"/>
<path d="M23.3333 50V36.6667C23.3333 34.8986 24.0357 33.2029 25.286 31.9526C26.5362 30.7024 28.2319 30 30 30M36.6667 36.6667V50M23.3333 43.3333H36.6667M56.6667 30V43.3333M53.7167 40.4367C54.8167 40.9333 55.7 41.81 56.2067 42.9033M10 10L70 70" stroke="#9A0BD7" stroke-width="2" stroke-linecap="round" stroke-linejoin="round"/>
</svg>
