<svg width="80" height="80" viewBox="0 0 80 80" fill="none" xmlns="http://www.w3.org/2000/svg">
<g opacity="0.4">
<path d="M30 60C28.1667 60 26.5978 59.3477 25.2933 58.0433C23.9867 56.7366 23.3333 55.1666 23.3333 53.3333V13.3333C23.3333 11.5 23.9867 9.92996 25.2933 8.62329C26.5978 7.31885 28.1667 6.66663 30 6.66663H60C61.8333 6.66663 63.4033 7.31885 64.71 8.62329C66.0144 9.92996 66.6667 11.5 66.6667 13.3333V53.3333C66.6667 55.1666 66.0144 56.7366 64.71 58.0433C63.4033 59.3477 61.8333 60 60 60H30ZM30 53.3333H60V13.3333H30V53.3333ZM16.6667 73.3333C14.8333 73.3333 13.2633 72.6811 11.9567 71.3766C10.6522 70.07 10 68.5 10 66.6666V23.3333C10 22.3888 10.32 21.5966 10.96 20.9566C11.5978 20.3188 12.3889 20 13.3333 20C14.2778 20 15.07 20.3188 15.71 20.9566C16.3478 21.5966 16.6667 22.3888 16.6667 23.3333V66.6666H50C50.9444 66.6666 51.7367 66.9866 52.3767 67.6266C53.0144 68.2644 53.3333 69.0555 53.3333 70C53.3333 70.9444 53.0144 71.7355 52.3767 72.3733C51.7367 73.0133 50.9444 73.3333 50 73.3333H16.6667ZM30 13.3333V53.3333V13.3333Z" fill="#9A0BD7"/>
</g>
</svg>
