<svg width="80" height="80" viewBox="0 0 80 80" fill="none" xmlns="http://www.w3.org/2000/svg">
<path d="M40 6.66663C21.6333 6.66663 6.66666 21.6333 6.66666 40C6.66666 58.3666 21.6333 73.3333 40 73.3333C58.3667 73.3333 73.3333 58.3666 73.3333 40C73.3333 21.6333 58.3667 6.66663 40 6.66663ZM36.6667 33.3333V23.3333C36.6667 21.5 38.1667 20 40 20C41.8333 20 43.3333 21.5 43.3333 23.3333V33.3333H49.3C50.8 33.3333 51.5333 35.1333 50.4667 36.1666L41.1667 45.4666C40.5 46.1333 39.4667 46.1333 38.8 45.4666L29.5 36.1666C29.2696 35.9316 29.114 35.6337 29.0527 35.3104C28.9914 34.9871 29.0272 34.6529 29.1555 34.3499C29.2838 34.0469 29.499 33.7887 29.7738 33.6078C30.0487 33.4269 30.3709 33.3314 30.7 33.3333H36.6667ZM53.3333 56.6666H26.6667C24.8333 56.6666 23.3333 55.1666 23.3333 53.3333C23.3333 51.5 24.8333 50 26.6667 50H53.3333C55.1667 50 56.6667 51.5 56.6667 53.3333C56.6667 55.1666 55.1667 56.6666 53.3333 56.6666Z" fill="#9A0BD7"/>
</svg>
