<svg width="80" height="80" viewBox="0 0 80 80" fill="none" xmlns="http://www.w3.org/2000/svg">
<path d="M40 73.3333C21.59 73.3333 6.66667 58.41 6.66667 40C6.66667 21.59 21.59 6.66663 40 6.66663C58.41 6.66663 73.3333 21.59 73.3333 40C73.3333 58.41 58.41 73.3333 40 73.3333ZM40 66.6666C47.0724 66.6666 53.8552 63.8571 58.8562 58.8561C63.8572 53.8552 66.6667 47.0724 66.6667 40C66.6667 32.9275 63.8572 26.1447 58.8562 21.1438C53.8552 16.1428 47.0724 13.3333 40 13.3333C32.9276 13.3333 26.1448 16.1428 21.1438 21.1438C16.1429 26.1447 13.3333 32.9275 13.3333 40C13.3333 47.0724 16.1429 53.8552 21.1438 58.8561C26.1448 63.8571 32.9276 66.6666 40 66.6666ZM23.3333 40H30C30 42.6521 31.0536 45.1957 32.9289 47.071C34.8043 48.9464 37.3478 50 40 50C42.6522 50 45.1957 48.9464 47.0711 47.071C48.9464 45.1957 50 42.6521 50 40H56.6667C56.6667 44.4202 54.9107 48.6595 51.7851 51.7851C48.6595 54.9107 44.4203 56.6666 40 56.6666C35.5797 56.6666 31.3405 54.9107 28.2149 51.7851C25.0893 48.6595 23.3333 44.4202 23.3333 40Z" fill="#9A0BD7"/>
</svg>
