<svg width="100" height="100" viewBox="0 0 100 100" fill="none" xmlns="http://www.w3.org/2000/svg">
<path d="M48.341 9.61274C48.7958 9.21759 49.3781 9 49.9806 9C50.5831 9 51.1653 9.21759 51.6202 9.61274L59.7368 16.6627C59.9897 16.8825 60.2841 17.0493 60.6026 17.1531C60.9211 17.2569 61.2572 17.2956 61.591 17.2669L72.3077 16.3336C72.9077 16.282 73.5061 16.4488 73.993 16.8032C74.4798 17.1577 74.8224 17.6759 74.9577 18.2627L77.3827 28.7377C77.4575 29.0651 77.5976 29.374 77.7945 29.646C77.9913 29.918 78.241 30.1476 78.5285 30.3211L87.7452 35.8627C88.2609 36.1733 88.6473 36.6595 88.8333 37.232C89.0193 37.8046 88.9924 38.4251 88.7577 38.9794L84.5577 48.8794C84.427 49.1879 84.3597 49.5194 84.3597 49.8544C84.3597 50.1894 84.427 50.5209 84.5577 50.8294L88.7577 60.7294C88.9936 61.2842 89.0211 61.9057 88.835 62.4791C88.6489 63.0526 88.2619 63.5396 87.7452 63.8502L78.5285 69.3919C78.2414 69.5649 77.992 69.7938 77.7952 70.0651C77.5983 70.3364 77.4581 70.6445 77.3827 70.9711L74.9577 81.4461C74.8224 82.0329 74.4798 82.5511 73.993 82.9056C73.5061 83.26 72.9077 83.4268 72.3077 83.3752L61.591 82.4419C61.2575 82.4127 60.9216 82.4507 60.6031 82.5538C60.2845 82.6568 59.99 82.8228 59.7368 83.0419L51.616 90.0961C51.1612 90.4912 50.5789 90.7088 49.9764 90.7088C49.3739 90.7088 48.7917 90.4912 48.3368 90.0961L40.2202 83.0419C39.967 82.8228 39.6725 82.6568 39.354 82.5538C39.0355 82.4507 38.6995 82.4127 38.366 82.4419L27.6493 83.3752C27.0493 83.4268 26.4509 83.26 25.9641 82.9056C25.4772 82.5511 25.1346 82.0329 24.9993 81.4461L22.5743 70.9711C22.4995 70.6437 22.3594 70.3348 22.1626 70.0628C21.9657 69.7908 21.716 69.5612 21.4285 69.3877L12.2118 63.8461C11.6961 63.5355 11.3097 63.0493 11.1237 62.4768C10.9377 61.9042 10.9646 61.2838 11.1993 60.7294L15.3993 50.8294C15.53 50.5209 15.5973 50.1894 15.5973 49.8544C15.5973 49.5194 15.53 49.1879 15.3993 48.8794L11.1993 38.9794C10.9634 38.4246 10.936 37.8031 11.122 37.2297C11.3081 36.6562 11.6951 36.1692 12.2118 35.8586L21.4285 30.3169C21.7156 30.1439 21.965 29.915 22.1618 29.6437C22.3587 29.3724 22.499 29.0643 22.5743 28.7377L24.9993 18.2627C25.1346 17.6759 25.4772 17.1577 25.9641 16.8032C26.4509 16.4488 27.0493 16.282 27.6493 16.3336L38.366 17.2669C38.6998 17.2956 39.0359 17.2569 39.3544 17.1531C39.673 17.0493 39.9674 16.8825 40.2202 16.6627L48.341 9.61274V9.61274Z" stroke="#333333" stroke-width="1.5"/>
<path d="M37.4785 54.021L45.8118 62.3543L66.6452 41.521" stroke="#333333" stroke-width="1.5" stroke-linecap="round" stroke-linejoin="round"/>
</svg>
