<svg width="50" height="50" viewBox="0 0 50 50" fill="none" xmlns="http://www.w3.org/2000/svg">
<path d="M31.25 18.75L25 0L18.75 18.75L0 25L18.75 31.25L25 50L31.25 31.25L50 25L31.25 18.75ZM8.33333 25L20.8333 20.8333L22.9167 25H8.33333ZM25 41.6667L20.8333 29.1667L25 27.0833V41.6667ZM25 8.33333L29.1667 20.8333L25 22.9167V8.33333ZM29.1667 29.1667L27.0833 25H41.6667L29.1667 29.1667ZM18.125 36.0417L10.4167 39.5833L13.9583 31.875L17.2917 32.9167L18.125 36.0417ZM36.0417 31.875L39.5833 39.5833L31.875 36.0417L32.9167 32.7083L36.0417 31.875ZM13.9583 18.125L10.4167 10.4167L18.125 13.9583L17.0833 17.0833L13.9583 18.125ZM31.875 13.9583L39.5833 10.4167L36.0417 18.125L32.7083 17.0833L31.875 13.9583Z" fill="#A30CD5"/>
</svg>
